<svg id="Layer_1" data-name="Layer 1" xmlns="http://www.w3.org/2000/svg" viewBox="0 0 512 512"><title>trash-bin-open</title><path d="M.07,256C.07,114.65,114.65.05,256,.05S511.94,114.66,511.93,256,397.34,511.95,256,511.95.05,397.35.07,256Z" fill="#ff352e"/><polygon points="169.99 265.27 169.99 386.34 320.33 386.34 320.33 265.27 297.85 265.27 297.85 325.81 276.77 325.81 276.77 265.27 255.7 265.27 255.7 325.81 234.62 325.81 234.62 265.27 213.55 265.27 213.55 325.81 192.47 325.81 192.47 265.27 169.99 265.27" fill="#fff"/><path d="M310.34,199.6l1.4-3.22,1.4-3.22,12.3-28.36L235.2,125.66,222.9,154l-1.4,3.22-1.4,3.22L187.24,146.2l-18.45,42.54,156,67.65,18.45-42.54Zm-69.49-34,1.39-3.23,3.91-9,51.56,22.37-3.91,9L292.4,188,291,191.21l-51.56-22.36Z" fill="#fff"/></svg>