<?xml version="1.0" encoding="iso-8859-1"?>
<!-- Generator: Adobe Illustrator 22.1.0, SVG Export Plug-In . SVG Version: 6.00 Build 0)  -->
<svg xmlns="http://www.w3.org/2000/svg" xmlns:xlink="http://www.w3.org/1999/xlink" version="1.1" id="Layer_1" x="0px" y="0px" viewBox="0 0 40 40" style="enable-background:new 0 0 40 40;" xml:space="preserve" width="16px" height="16px">
<g style="display:none;">
</g>
<path style="fill:#BAE0BD;" d="M20,38.5C9.8,38.5,1.5,30.2,1.5,20S9.8,1.5,20,1.5S38.5,9.8,38.5,20S30.2,38.5,20,38.5z"/>
<path style="fill:#5E9C76;" d="M20,2c9.9,0,18,8.1,18,18s-8.1,18-18,18S2,29.9,2,20S10.1,2,20,2 M20,1C9.5,1,1,9.5,1,20  s8.5,19,19,19s19-8.5,19-19S30.5,1,20,1L20,1z"/>
<polygon style="fill:#FFFFFF;" points="17,28 10.1,21.1 12.2,19 17,23.8 29.1,11.7 31.2,13.8 "/>
</svg>
